<svg width="105px" height="106px" viewBox="0 0 105 106" version="1.1" xmlns="http://www.w3.org/2000/svg" xmlns:xlink="http://www.w3.org/1999/xlink">
    <defs>
        <ellipse id="path-1" cx="43.5" cy="44" rx="43.5" ry="44"></ellipse>
        <filter x="-16.1%" y="-14.8%" width="132.2%" height="131.8%" filterUnits="objectBoundingBox" id="filter-2">
            <feOffset dx="0" dy="1" in="SourceAlpha" result="shadowOffsetOuter1"></feOffset>
            <feGaussianBlur stdDeviation="4.5" in="shadowOffsetOuter1" result="shadowBlurOuter1"></feGaussianBlur>
            <feColorMatrix values="0 0 0 0 1   0 0 0 0 1   0 0 0 0 1  0 0 0 0.56870083 0" type="matrix" in="shadowBlurOuter1"></feColorMatrix>
        </filter>
        <polygon id="path-3" points="0.000119230769 0.26328984 30.9353173 0.26328984 30.9353173 55.7005348 0.000119230769 55.7005348"></polygon>
    </defs>
    <g id="module-types" stroke="none" stroke-width="1" fill="none" fill-rule="evenodd">
        <g id="example" transform="translate(-1264.000000, -24.000000)">
            <g id="INCLUDE-THIS-IN-YOUR-SKETCH" transform="translate(80.000000, 32.000000)">
                <g id="icon/back-home" transform="translate(1193.000000, 0.000000)">
                    <g id="back-home">
                        <g id="Oval">
                            <use fill="black" fill-opacity="1" filter="url(#filter-2)" xlink:href="#path-1"></use>
                            <use fill="#000000" fill-rule="evenodd" xlink:href="#path-1"></use>
                        </g>
                        <g class="question-mark-logo__question-mark" id="logo/condensed" transform="translate(31.000000, 15.500000)">
                            <g id="Group-10">
                                <path d="M7.86905192,16.7267508 C7.39749423,17.0585583 6.89046538,17.3304727 6.34915769,17.543692 C5.80695577,17.7563123 5.253725,17.8632214 4.68827308,17.8632214 C3.65126346,17.8632214 2.82618654,17.5559701 2.21423462,16.9399701 C1.60138846,16.3251679 1.29526346,15.6151358 1.29526346,14.8095743 C1.29526346,12.8687401 1.76562885,11.0455957 2.70874423,9.34133904 C3.65126346,7.63678289 4.92345577,6.14574545 6.52591731,4.86732834 C8.12748462,3.5892107 9.9541,2.58390588 12.003975,1.84931765 C14.05385,1.11592727 16.2095423,0.748782888 18.4716481,0.748782888 C20.2145038,0.748782888 21.8291865,1.03267594 23.3136096,1.6007615 C24.7980327,2.16914652 26.0705231,2.93907166 27.1304846,3.90874011 C28.1910423,4.87960642 29.0146288,6.01577754 29.6045231,7.31755294 C30.1935231,8.62022674 30.4883212,10.004954 30.4883212,11.4717348 C30.4883212,13.886323 30.1455327,16.0289968 29.4632346,17.8985583 C28.7794462,19.7693176 27.7898308,21.4493176 26.4943885,22.9406545 C25.1977538,24.431692 23.6197346,25.7933604 21.7585423,27.0238631 C19.8964558,28.2555636 17.7878596,29.4381519 15.4321577,30.5746225 C14.6780231,30.9064299 14.10035,31.2136813 13.7003308,31.4975743 C13.2997154,31.7817668 12.910725,32.2788791 12.5339558,32.9892107 C12.2975808,33.5105797 12.1100904,34.0663872 11.9688019,34.657831 C11.8272154,35.2501733 11.6385327,35.8185583 11.4030519,36.3620877 C11.1666769,36.9071144 10.8024269,37.3566118 10.3076192,37.7114781 C9.81281154,38.0666439 9.1171,38.2442267 8.22257115,38.2442267 C6.99628269,38.2442267 6.07760962,37.8657027 5.46565769,37.1080556 C4.85281154,36.3510075 4.54668654,35.4990289 4.54668654,34.5512214 C4.54668654,34.0307508 4.65280192,33.486323 4.86503269,32.917938 C5.07696538,32.3498524 5.253725,31.8060235 5.39501346,31.2846545 C5.96046538,29.8642909 6.66750385,28.7403979 7.51553269,27.9117775 C8.36385962,27.0837561 9.31800385,26.3737241 10.3782635,25.7810824 C11.4388212,25.1896385 12.569725,24.633831 13.7712731,24.1121626 C14.9728212,23.5919914 16.1853981,22.9295743 17.4113885,22.1237134 C17.5526769,22.0296813 17.7878596,21.8287401 18.1184269,21.5202909 C18.4472058,21.2127401 18.8129462,20.8701519 19.2141577,20.4904299 C19.6135808,20.1122053 19.9793212,19.7447615 20.3092923,19.3898952 C20.6386673,19.0347294 20.8508981,18.7861733 20.9456865,18.6442267 C21.6986288,17.5559701 22.2181769,16.4428578 22.5007538,15.3066866 C22.7833308,14.1705155 22.9249173,12.9876278 22.9249173,11.7556278 C22.9249173,10.004954 22.4301096,8.79751016 21.4404942,8.13419465 C20.4508788,7.47177754 19.0836,7.13997005 17.3407442,7.13997005 C15.9269654,7.13997005 14.6902442,7.47177754 13.6296865,8.13419465 C12.569725,8.79751016 11.6740038,9.61445134 10.9437154,10.5841198 C10.2125327,11.5549861 9.60087885,12.5968257 9.10577308,13.7087401 C8.61096538,14.8218524 8.19812885,15.8280556 7.86905192,16.7267508 M8.01034038,43.9963551 C8.95256154,43.9963551 9.76511923,44.2571893 10.4489077,44.7773604 C11.1315038,45.2987294 11.4739942,46.0557775 11.4739942,47.0500021 C11.4739942,47.8552642 11.2265904,48.7309005 10.7317827,49.6772107 C10.236975,50.6247187 9.62412885,51.5126332 8.89384038,52.3403551 C8.16265769,53.1689754 7.3501,53.8670289 6.45527308,54.4354139 C5.55955192,55.0032 4.711225,55.287692 3.91059038,55.287692 C3.15615769,55.287692 2.39099423,55.0621947 1.61360962,54.6129968 C0.835628846,54.1623016 0.447234615,53.5121626 0.447234615,52.6598845 L0.517878846,51.4527401 C0.846657692,50.6959914 1.24786923,49.8793497 1.71942692,49.0025155 C2.18979231,48.1271786 2.73229231,47.322815 3.34513846,46.5882267 C3.95709038,45.8548364 4.65280192,45.2388364 5.43018654,44.7420235 C6.20786923,44.2449112 7.067225,43.9963551 8.01034038,43.9963551" id="Fill-1" fill="#FFFFFF"></path>
                                <g id="Group-5" transform="translate(0.000000, 0.036235)">
                                    <mask id="mask-4" fill="white">
                                        <use xlink:href="#path-3"></use>
                                    </mask>
                                    <g id="Clip-4"></g>
                                    <path d="M5.819475,31.3918032 C5.67699423,31.9140706 5.49665769,32.4680813 5.28353269,33.039461 C5.09157115,33.5542417 4.99380192,34.0507551 4.99380192,34.5152257 C4.99380192,35.3645091 5.26177308,36.1080813 5.81261923,36.7881668 C6.33991731,37.4413005 7.12833077,37.7587337 8.22257115,37.7587337 C9.01843654,37.7587337 9.63277308,37.6075037 10.0476962,37.3098353 C10.4784173,37.0004877 10.7878212,36.6201668 10.9931962,36.1464128 C11.2176481,35.6280385 11.3997731,35.0794182 11.5339077,34.516723 C11.6817538,33.8977283 11.8814654,33.3089797 12.1270808,32.7666481 C12.5530327,31.961985 12.9792827,31.4229476 13.4424942,31.0944342 C13.8696385,30.7913754 14.4616192,30.4748406 15.2527154,30.126862 C17.5693692,29.0089583 19.68035,27.8242738 21.5123308,26.612338 C23.3285135,25.4117818 24.8913308,24.0650866 26.1575615,22.6087872 C27.4115712,21.1653647 28.3824077,19.5162096 29.0435423,17.7074396 C29.7055712,15.8938781 30.0412058,13.7835465 30.0412058,11.4354396 C30.0412058,10.0408299 29.7574365,8.70551444 29.19735,7.4669262 C28.6351769,6.22624171 27.8384173,5.12840214 26.8291288,4.20455187 C25.8147731,3.27650909 24.57835,2.52934332 23.1544365,1.98431658 C21.7281385,1.43839144 20.1528019,1.16168556 18.4716481,1.16168556 C16.2724365,1.16168556 14.14685,1.52314011 12.1539077,2.23646631 C10.1573885,2.95188877 8.35730192,3.94341818 6.80402308,5.18290481 C5.25491731,6.4184984 4.00895577,7.87869091 3.09982115,9.52335401 C2.19903269,11.1509476 1.74237885,12.9171936 1.74237885,14.7732791 C1.74237885,15.4614503 2.00021538,16.0543914 2.53019615,16.5859422 C3.05987885,17.1189904 3.76542692,17.3777283 4.68827308,17.3777283 C5.19410962,17.3777283 5.69845577,17.2804021 6.18640769,17.0890439 C6.65110962,16.9057711 7.09226346,16.674584 7.49913846,16.4005733 C7.81927308,15.5375144 8.22227308,14.558862 8.69770577,13.4891722 C9.20533077,12.3485091 9.84112885,11.267739 10.5872154,10.2768086 C11.3467154,9.26820963 12.2910231,8.40664813 13.3933115,7.71668021 C14.5215327,7.01173904 15.8494654,6.65477647 17.3407442,6.65477647 C19.1652731,6.65477647 20.6282346,7.01443422 21.6884942,7.72386738 C22.8056865,8.47312941 23.3720327,9.81742888 23.3720327,11.7196321 C23.3720327,12.9809797 23.2247827,14.2123807 22.9344558,15.3793968 C22.6405519,16.5616856 22.0947731,17.7343914 21.3129173,18.8642738 C21.2062058,19.0238888 20.9901,19.2784342 20.6365808,19.6596535 C20.3015423,20.0199102 19.9262635,20.3972364 19.5205808,20.7811508 C19.1187731,21.1614717 18.7524365,21.5049583 18.4227635,21.8128086 C18.0662635,22.1458139 17.8233308,22.3521455 17.6581962,22.4620492 C16.4149173,23.2792898 15.1674654,23.9605733 13.9483308,24.4885305 C12.7610904,25.0039102 11.6328692,25.5588193 10.5952635,26.1376856 C9.57464808,26.7081668 8.64315769,27.4011294 7.82702308,28.1974075 C7.03235,28.9742203 6.35690769,30.0490011 5.819475,31.3918032 M8.22257115,38.6571294 C6.86065769,38.6571294 5.81619615,38.2187123 5.11839808,37.3547551 C4.44265769,36.5201455 4.09957115,35.5648513 4.09957115,34.5152257 C4.09957115,33.9426481 4.21641731,33.3398246 4.44653269,32.7241241 C4.6531,32.1695144 4.82717692,31.6331722 4.96369615,31.1303701 L4.98009038,31.0815572 C5.56551346,29.6102845 6.31368654,28.4232043 7.20404231,27.5535572 C8.07621538,26.7018781 9.07119615,25.9616 10.1606673,25.3524877 C11.2245038,24.7592471 12.3792538,24.190862 13.5939173,23.6635037 C14.7665519,23.1559102 15.9683981,22.4991829 17.1663692,21.7115893 C17.24685,21.6582845 17.4262923,21.5169369 17.8137923,21.1548834 C18.1422731,20.848231 18.5068212,20.5062417 18.9074365,20.1274182 C19.2994077,19.7563807 19.6612731,19.3928299 19.9828981,19.0469476 C20.3703981,18.6285947 20.5185423,18.4411294 20.5745808,18.3575786 C21.2986096,17.3112471 21.7990808,16.2379636 22.0670519,15.1613861 C22.3394942,14.0659422 22.4778019,12.9076107 22.4778019,11.7196321 C22.4778019,10.1363594 22.0452923,9.0436107 21.1921962,8.47133262 C20.2818692,7.86222032 18.9858308,7.55317219 17.3407442,7.55317219 C16.0190712,7.55317219 14.8497154,7.86461604 13.8657635,8.47941818 C12.8567731,9.11069091 11.9938404,9.89798503 11.3005135,10.8188406 C10.5949654,11.7555679 9.99404231,12.7770439 9.51413846,13.8557176 C9.02201346,14.9628406 8.609475,15.9687444 8.28874423,16.8455786 L8.24045577,16.9776428 L8.12539808,17.0584984 C7.62969615,17.4073754 7.08689808,17.6990545 6.51250385,17.9254503 C5.91962885,18.1584342 5.30588846,18.2761241 4.68827308,18.2761241 C3.53233077,18.2761241 2.59338846,17.9212578 1.897975,17.221108 C1.20166731,16.5227551 0.848148077,15.6992257 0.848148077,14.7732791 C0.848148077,12.7626695 1.34265769,10.8493861 2.31826346,9.08673369 C3.28433077,7.33905455 4.6066,5.78872299 6.24781154,4.47946096 C7.87799423,3.17858396 9.76392692,2.13884064 11.8537442,1.39017754 C13.9435615,0.642412834 16.1701962,0.26328984 18.4716481,0.26328984 C20.2618981,0.26328984 21.9445423,0.559760428 23.4730808,1.14491551 C25.0019173,1.73007059 26.3334269,2.53623102 27.4315423,3.54033797 C28.5305519,4.54684064 29.3985519,5.74290481 30.0113981,7.09528984 C30.6245423,8.45156791 30.9354365,9.91146096 30.9354365,11.4354396 C30.9354365,13.8895572 30.5813212,16.1038032 29.8829269,18.0170866 C29.1842346,19.9291722 28.1573596,21.6729583 26.8312154,23.1999316 C25.5116288,24.7170225 23.8877058,26.1179209 22.0041577,27.3627979 C20.1384942,28.5968941 17.9926385,29.8016428 15.6256096,30.9432043 C14.8866769,31.268723 14.3304654,31.5642952 13.9584654,31.8284235 C13.6165712,32.0706909 13.2702058,32.5201882 12.9289077,33.1640385 C12.7187635,33.629108 12.5381288,34.1630545 12.4036962,34.7263487 C12.2573404,35.3396535 12.0585231,35.9382845 11.8132058,36.5051722 C11.5449365,37.1235679 11.1258404,37.6401455 10.5675423,38.0408299 C9.99791731,38.4496 9.20890769,38.6571294 8.22257115,38.6571294 M0.959330769,51.523354 L0.893455769,52.6502417 C0.89435,53.3180492 1.19361923,53.814862 1.83686923,54.1876963 C2.54271538,54.5952684 3.24051346,54.8021989 3.91059038,54.8021989 C4.62120577,54.8021989 5.39739808,54.5386695 6.21651346,54.0193968 C7.07139808,53.4764663 7.85981154,52.7990759 8.55939808,52.006092 C9.26315769,51.2083166 9.86080192,50.3425626 10.3356385,49.4324877 C10.7940808,48.555354 11.0268788,47.741707 11.0268788,47.013707 C11.0268788,46.1611294 10.7493692,45.5349476 10.1782538,45.0986267 C9.56868654,44.6350545 8.85926346,44.4092578 8.01034038,44.4092578 C7.14651346,44.4092578 6.38135,44.6302631 5.67043654,45.0848513 C4.93448462,45.5550118 4.26768654,46.1455572 3.68792692,46.8403166 C3.09535,47.5503487 2.56566731,48.3373433 2.11288846,49.179739 C1.66130192,50.0194396 1.27350385,50.8073326 0.959330769,51.523354 M3.91059038,55.7005947 C3.08193654,55.7005947 2.23420577,55.4535358 1.39064808,54.9660064 C0.467801923,54.431461 0.000119230769,53.6432684 0.000119230769,52.6235893 L0.0761288462,51.3101348 L0.108023077,51.2367658 C0.437398077,50.4785198 0.847253846,49.6430118 1.32626346,48.7530011 C1.80735962,47.8573005 2.37161923,47.0196963 3.00264808,46.2632471 C3.64083077,45.4978139 4.37708077,44.846477 5.19053269,44.3266053 C6.03677308,43.7851722 6.98585,43.510862 8.01034038,43.510862 C9.04675385,43.510862 9.95827308,43.804338 10.7189654,44.3829048 C11.5166192,44.992616 11.9211096,45.8775358 11.9211096,47.013707 C11.9211096,47.8887444 11.6540327,48.8428406 11.1276288,49.8499422 C10.6191096,50.8241027 9.98003269,51.7500492 9.22887885,52.6020278 C8.47295577,53.4581989 7.62045577,54.1906909 6.69433077,54.7788406 C5.72945577,55.3906481 4.79319615,55.7005947 3.91059038,55.7005947" id="Fill-3" fill="#000000" mask="url(#mask-4)"></path>
                                </g>
                                <path d="M8.22245192,35.8483551 C7.75596154,35.8483551 7.451625,35.7645048 7.31778846,35.5986011 C7.04981731,35.2679914 6.93148077,34.9457668 6.93148077,34.5513711 C6.93148077,34.3210824 6.98722115,34.0548578 7.09780769,33.759585 C7.31629808,33.1735316 7.50378846,32.6021519 7.65640385,32.0577241 C8.08414423,31.0143872 8.59594231,30.1980449 9.17808654,29.629061 C9.87111538,28.9528684 10.6651923,28.362323 11.5373654,27.8747936 C12.5177404,27.3279701 13.5881346,26.8015102 14.71725,26.3112856 C16.0365385,25.7402053 17.3826538,25.0056171 18.7168462,24.1284834 C18.9907788,23.9464086 19.2939231,23.6933604 19.7419327,23.2750075 C20.0745865,22.9641626 20.4439038,22.6176813 20.8489904,22.2343658 C21.2850769,21.8217027 21.6898654,21.4150289 22.0520288,21.0251251 C22.4797692,20.5639487 22.7379038,20.2563979 22.9113846,20.0006545 C23.8237981,18.6794139 24.4637692,17.295585 24.8143077,15.8874995 C25.1430865,14.5665583 25.3094135,13.1764406 25.3094135,11.7557775 C25.3094135,8.52634439 23.9257404,6.92001283 22.7644327,6.14170267 C21.3786731,5.21395936 19.5547404,4.74439786 17.3409231,4.74439786 C15.4824135,4.74439786 13.8102019,5.20018396 12.3707885,6.09947807 C11.0643173,6.91731765 9.94503846,7.93939251 9.04186538,9.13905027 C8.20754808,10.2470717 7.49633654,11.4554139 6.92909615,12.7308364 C6.55143269,13.5804193 6.21699038,14.3766973 5.93083654,15.1088898 C5.78448077,15.1837561 5.63335577,15.2523337 5.47865385,15.3131251 C5.21515385,15.4164406 4.95582692,15.4673497 4.68845192,15.4673497 C4.12061538,15.4673497 3.96174038,15.3077348 3.902125,15.2475422 C3.68005769,15.0247401 3.68005769,14.9052535 3.68005769,14.8094246 C3.68005769,13.2668791 4.04400962,11.859093 4.79307692,10.5052107 C5.57850962,9.08484706 6.66023077,7.81930695 8.00873077,6.74392727 C9.39568269,5.63680428 11.0091731,4.74948877 12.8050865,4.10593797 C14.5878846,3.46807701 16.4946827,3.14435508 18.4718269,3.14435508 C19.9160096,3.14435508 21.2594423,3.37823743 22.4648654,3.8394139 C23.66075,4.29759572 24.6903077,4.91688984 25.5252212,5.68022674 C26.35,6.43547807 26.9747692,7.29584171 27.4341058,8.31013048 C27.8845,9.30585241 28.1035865,10.3408043 28.1035865,11.4718845 C28.1035865,13.5906011 27.8078942,15.4754353 27.2245577,17.0739807 C26.6456923,18.6572535 25.7955769,20.1015743 24.6974615,21.3656171 C23.5477788,22.6880556 22.1173077,23.9185583 20.4477788,25.0223872 C18.696875,26.1807187 16.674125,27.3162909 14.4361635,28.3976599 C13.543125,28.7923551 12.8515865,29.1666866 12.3242885,29.5410182 C11.6086058,30.0486118 10.9886058,30.8083551 10.4294135,31.8624727 L10.3945385,31.9283551 L10.3641346,31.9963337 C10.0666538,32.6515636 9.82670192,33.3589005 9.64994231,34.0988791 C9.54203846,34.5516706 9.39598077,34.9918845 9.21624038,35.4072428 C9.15334615,35.5524834 9.06511538,35.6587936 8.92233654,35.7615102 C8.91816346,35.7615102 8.73007692,35.8483551 8.22245192,35.8483551 M3.91047115,52.8918203 C3.59450962,52.8918203 3.23502885,52.7798203 2.84186538,52.558815 L2.87286538,52.0311572 C3.13904808,51.4472 3.45620192,50.8135316 3.81747115,50.1415316 C4.20825,49.413831 4.66400962,48.7364406 5.17282692,48.1273283 C5.62471154,47.5849968 6.14217308,47.1265155 6.71030769,46.7632642 C7.10675,46.5099166 7.51958654,46.3919273 8.01022115,46.3919273 C8.55182692,46.3919273 8.82874038,46.549446 9.009375,46.6872 C9.03083654,46.7033711 9.08925962,46.7479914 9.08925962,47.0498524 C9.08925962,47.4535316 8.92710577,47.9766973 8.62068269,48.5630503 C8.21738462,49.3356706 7.70916346,50.0711572 7.10943269,50.7515422 C6.53086538,51.4067722 5.88195192,51.9649754 5.18117308,52.4102802 C4.684875,52.7250182 4.24491346,52.8918203 3.91047115,52.8918203" id="Fill-6" fill="#000000"></path>
                                <path d="M7.66442212,35.3149476 C7.66621058,35.3149476 7.78156635,35.3990973 8.22242212,35.3990973 C8.48800865,35.3990973 8.64211442,35.3724449 8.71365288,35.3556749 C8.76313365,35.3122524 8.78608558,35.2748193 8.80635481,35.2278032 C8.9756625,34.8355037 9.11337404,34.4204449 9.21501827,33.9943059 C9.39863365,33.2258781 9.64812404,32.4909904 9.95693173,31.8100064 L10.0350279,31.6512898 C10.6279029,30.5333861 11.2923163,29.7230332 12.0664221,29.1741134 C12.6184606,28.7821134 13.3347394,28.3934075 14.2560952,27.9864342 C16.4627587,26.9200385 18.467624,25.7943487 20.2018356,24.6470973 C21.838576,23.5651294 23.237749,22.3618781 24.3609029,21.069985 C25.4220567,19.8484663 26.244451,18.4517604 26.8048356,16.9190973 C27.3699894,15.3705626 27.6564413,13.5375358 27.6564413,11.4718246 C27.6564413,10.4060278 27.4507683,9.43246631 27.027201,8.4960385 C26.593499,7.53864813 26.0036048,6.72619893 25.2238356,6.01197433 C24.4306529,5.28696898 23.4487875,4.69702246 22.3056625,4.25920428 C21.1512106,3.81749305 19.8611337,3.59349305 18.4717971,3.59349305 C16.5465183,3.59349305 14.6903933,3.90853048 12.9549894,4.52902246 C11.205576,5.15610267 9.63471058,6.01976043 8.28680673,7.09543957 C6.98480673,8.13398503 5.94064327,9.35490481 5.18412404,10.723461 C4.4729125,12.0087658 4.12714327,13.3452791 4.12714327,14.8093647 C4.12267212,14.8138567 4.1396625,14.8509904 4.21775865,14.9297497 C4.27171058,14.9839529 4.45592212,15.0183914 4.68842212,15.0183914 C4.8991625,15.0183914 5.10423942,14.9779636 5.31557596,14.8947123 C5.40380673,14.8599743 5.49173942,14.8222417 5.57877788,14.7818139 C5.85360481,14.0870545 6.16986442,13.3362952 6.52099904,12.5475037 C7.10135481,11.2421348 7.82985481,10.0041455 8.68533558,8.86797433 C9.62159519,7.62429519 10.7820087,6.56478717 12.1343837,5.71819893 C13.6459317,4.77398503 15.3974317,4.29514011 17.3408933,4.29514011 C19.6441337,4.29514011 21.5524221,4.79075508 23.0124029,5.7676107 C24.264326,6.60731123 25.756499,8.32714011 25.756499,11.7557176 C25.756499,13.2135144 25.5854029,14.6401668 25.2479798,15.9964449 C24.884624,17.4575358 24.221999,18.8907765 23.2788837,20.2566374 C23.094076,20.5288513 22.8243163,20.8513754 22.3792875,21.3314182 C22.009374,21.729108 21.5977298,22.142969 21.1556817,22.5613219 C20.749701,22.9455358 20.3794894,23.292616 20.0462394,23.6040599 C19.5731913,24.0457711 19.2593163,24.3063059 18.963624,24.5030545 C17.6064798,25.395461 16.2380087,26.1423273 14.8942779,26.7238888 C13.7800663,27.2075251 12.7236817,27.7270973 11.7546337,28.2676321 C10.9167394,28.7356963 10.1545567,29.3022845 9.48954712,29.9512257 C8.95598942,30.4725947 8.48174904,31.2308406 8.07964327,32.2050011 C7.92464327,32.7542203 7.73536442,33.330092 7.51627788,33.9173433 C7.42625865,34.1587123 7.37856635,34.3776214 7.37856635,34.5513112 C7.37856635,34.8429904 7.46143173,35.0642952 7.66442212,35.3149476 Z M8.22242212,36.297493 C7.60599904,36.297493 7.19673942,36.1615358 6.97049904,35.8815358 C6.6390375,35.4721668 6.48433558,35.0493219 6.48433558,34.5513112 C6.48433558,34.2668193 6.5499125,33.9475893 6.67897981,33.601707 C6.89270096,33.0294289 7.07661442,32.4688299 7.22565288,31.9360813 L7.24294135,31.8863701 C7.69422981,30.7867337 8.24030673,29.9188834 8.86626827,29.3070759 C9.5879125,28.6030332 10.4132875,27.9891294 11.3200375,27.4824342 C12.3153163,26.9272257 13.3982298,26.394477 14.5398644,25.8991615 C15.8367971,25.3376642 17.1596625,24.615354 18.4720952,23.7525947 C18.7189029,23.5884877 19.0083356,23.3468193 19.4372683,22.9458353 C19.769326,22.6355893 20.1380471,22.2900064 20.5425375,21.9075893 C20.970874,21.5021134 21.3688067,21.1020278 21.7253067,20.7184128 C22.1378452,20.273707 22.3819702,19.9835251 22.5420375,19.7475465 C23.4252394,18.4685305 24.0431529,17.1341134 24.380576,15.7784342 C24.7001144,14.4934289 24.8622683,13.1401455 24.8622683,11.7557176 C24.8622683,8.72453048 23.586499,7.23289412 22.5161048,6.5153754 C21.2060567,5.63824171 19.4646913,5.19353583 17.3408933,5.19353583 C15.5670375,5.19353583 13.9744125,5.62656257 12.6068356,6.4809369 C11.3480567,7.26882995 10.2684221,8.25437005 9.39833558,9.41000642 C8.58369135,10.4919743 7.89036442,11.670969 7.33713365,12.9140492 C6.96423942,13.7525519 6.6312875,14.5461348 6.34692212,15.2732364 L6.28492212,15.4316535 L6.13379712,15.509215 C5.97313365,15.5912684 5.80770096,15.6661348 5.64137404,15.7314182 C5.32422019,15.8559957 5.01272981,15.9167872 4.68842212,15.9167872 C4.01238365,15.9167872 3.73487404,15.7155465 3.58494135,15.5643166 C3.2755375,15.2537711 3.2329125,15.018092 3.2329125,14.8093647 C3.2329125,13.1886588 3.61534519,11.7093005 4.40226827,10.2871401 C5.21631635,8.81466952 6.33619135,7.50420963 7.73089327,6.39199572 C9.15570096,5.25462674 10.8124125,4.34335401 12.654826,3.68303316 C14.4871048,3.02750374 16.4439798,2.69509733 18.4717971,2.69509733 C19.9702298,2.69509733 21.3676144,2.93886203 22.6243067,3.41980321 C23.8720567,3.89774973 24.9493067,4.54639144 25.826249,5.34805989 C26.6975279,6.14553583 27.3562779,7.05351444 27.840951,8.12410267 C28.3187683,9.18031658 28.5506721,10.2751615 28.5506721,11.4718246 C28.5506721,13.6435465 28.2457394,15.5804877 27.6442202,17.2284449 C27.0456817,18.8650225 26.1678452,20.3560599 25.0342587,21.6608299 C23.8580471,23.0138139 22.3974702,24.2712684 20.6933644,25.3975572 C18.9260663,26.5666695 16.8860279,27.7124235 14.6298837,28.802477 C13.7505567,29.1911829 13.085249,29.5508406 12.5823933,29.9078032 C11.9248356,30.3740706 11.3498452,31.0826053 10.8243356,32.0738353 L10.7712779,32.1816428 C10.4857202,32.8114182 10.2547106,33.4915037 10.0848067,34.2039316 C9.97094135,34.6803807 9.81683558,35.1457497 9.62636442,35.5862631 C9.53127788,35.8060706 9.38998942,35.9776642 9.18222981,36.1267979 L9.06568173,36.2106481 L8.99265288,36.2106481 C8.84122981,36.254969 8.59829712,36.297493 8.22242212,36.297493 L8.22242212,36.297493 Z M3.30564327,52.2907337 C3.53069135,52.3907551 3.73636442,52.4425626 3.91044135,52.4425626 C4.15367212,52.4425626 4.52954712,52.292231 4.94238365,52.0304984 C5.60769135,51.6079529 6.22411442,51.0776 6.77496058,50.4535144 C7.35084519,49.8000813 7.83879712,49.0939422 8.22480673,48.3545626 C8.49397019,47.8391829 8.64211442,47.3762096 8.64211442,47.050092 C8.64211442,47.0213433 8.64151827,46.9973861 8.64032596,46.9779209 C8.52824904,46.912338 8.34165288,46.8410652 8.01019135,46.8410652 C7.60301827,46.8410652 7.27602788,46.9338995 6.95022981,47.1423273 C6.42024904,47.4810225 5.93736442,47.9095572 5.5152875,48.4159529 C5.02584519,49.0020064 4.58737404,49.6542417 4.21090288,50.3546909 C3.86930673,50.9907551 3.56765288,51.5914824 3.31398942,52.1418995 L3.30564327,52.2907337 Z M3.91044135,53.3409583 C3.51697981,53.3409583 3.08387404,53.2097925 2.62334519,52.9507551 L2.37922019,52.8133005 L2.43138365,51.9205947 L2.46655673,51.8439316 C2.73482596,51.2551829 3.05704712,50.6104342 3.42368173,49.9279529 C3.82906635,49.1741989 4.30211442,48.471354 4.83000865,47.838584 C5.31080673,47.2621134 5.86284519,46.7727872 6.47002788,46.3843807 C6.9412875,46.0831187 7.43072981,45.9426695 8.01019135,45.9426695 C8.69368173,45.9426695 9.06210481,46.1636749 9.27970096,46.3295786 C9.50564327,46.4981775 9.53634519,46.7883594 9.53634519,47.050092 C9.53634519,47.5325305 9.36137404,48.1119957 9.01649904,48.7720171 C8.59740288,49.5751829 8.06801827,50.3415144 7.44414327,51.0494503 C6.83755673,51.736723 6.15615288,52.3221775 5.42020096,52.7899422 C4.84372019,53.1555893 4.33579712,53.3409583 3.91044135,53.3409583 L3.91044135,53.3409583 Z" id="Fill-8" fill="#000000"></path>
                            </g>
                        </g>
                    </g>
                </g>
            </g>
        </g>
    </g>
</svg>
